<svg xmlns="http://www.w3.org/2000/svg" viewBox="0 0 300 300" class="iconAbove">
  <defs>
    <linearGradient id="ef8e489b-4579-4d59-ac2f-a7a7a3f15386" gradientTransform="rotate(25)" x1="0%" y1="0%" x2="100%" y2="0%">
      <stop offset="0%" stop-color="#5106FF" stop-opacity="1"/>
      <stop offset="100%" stop-color="#61CBF2" stop-opacity="1"/>
    </linearGradient>
  </defs>
  
  <rect fill="transparent" x="0" y="0" width="300" height="300" class="logo-background-square" />
  
  <g id="06e64ae0-0f99-4333-b742-2dc1328fdb4f" fill="#22255B" transform="matrix(5.089443206787109,0,0,5.089443206787109,47.26959090758369,166.45603287329178)">
    <path d="M2.58 7.87L2.58 17.82L1.27 18.28L1.27 8.36L2.58 7.87ZM6.38 5.15L6.38 16.91Q6.38 17.08 6.48 17.23Q6.58 17.39 6.82 17.39L6.82 17.39Q7.01 17.39 7.23 17.21Q7.45 17.04 7.56 16.84L7.56 16.84L7.80 17.05Q7.56 17.51 7.14 17.84Q6.72 18.16 6.30 18.16L6.30 18.16Q5.12 18.16 5.12 16.74L5.12 16.74L5.12 5.68L6.38 5.15ZM16.31 10.96Q16.73 10.96 16.96 11.24Q17.19 11.51 17.19 12.15L17.19 12.15L17.19 16.91Q17.19 17.12 17.29 17.26Q17.39 17.39 17.56 17.39L17.56 17.39Q17.72 17.39 17.92 17.25Q18.12 17.11 18.30 16.84L18.30 16.84L18.52 17.05Q18.23 17.68 17.82 17.93Q17.42 18.17 17.67 18.17Q17.92 18.16 17.07 18.16L17.07 18.16Q15.90 18.16 15.90 16.74L15.90 16.74L15.90 12.88Q15.90 12.74 15.83 12.64Q15.76 12.54 15.65 12.54L15.65 12.54Q15.34 12.54 14.98 13.22Q14.62 13.89 14.36 15.11Q14.11 16.34 14.11 17.92L14.11 17.92L12.84 18.28L12.84 12.88Q12.84 12.74 12.77 12.64Q12.70 12.54 12.60 12.54L12.60 12.54Q12.32 12.54 11.95 13.22Q11.58 13.90 11.30 15.13Q11.03 16.35 11.03 17.92L11.03 17.92L9.83 18.28L9.83 12.29Q9.83 12.05 9.71 11.91Q9.59 11.77 9.41 11.77L9.41 11.77Q9.06 11.77 8.69 12.38L8.69 12.38L8.47 12.15Q8.76 11.52 9.17 11.25Q9.58 10.98 9.67 10.97Q9.76 10.96 9.94 10.96L9.94 10.96Q10.61 10.96 10.85 11.25Q11.09 11.54 11.09 12.01L11.09 12.01L11.09 14.35L11.13 14.35Q11.48 12.82 12.07 11.89Q12.67 10.96 13.26 10.96L13.26 10.96Q13.69 10.96 13.91 11.23Q14.13 11.49 14.13 12.15L14.13 12.15L14.13 14.35L14.21 14.35Q14.56 12.82 15.14 11.89Q15.72 10.96 16.31 10.96L16.31 10.96ZM25.79 7.74L25.94 7.90Q25.40 8.61 24.58 9.07Q23.77 9.52 22.90 9.52L22.90 9.52Q22.62 9.87 22.50 10.18Q22.37 10.49 22.37 10.91L22.37 10.91L22.37 15.47Q22.37 16.56 22.04 17.19Q21.70 17.81 20.96 18.38L20.96 18.38L20.66 18.10Q20.87 17.86 20.98 17.49Q21.08 17.11 21.08 16.73L21.08 16.73L21.08 11.72Q21.08 11.09 21.42 10.51Q21.76 9.94 22.27 9.52L22.27 9.52L20.34 9.51Q19.81 9.51 19.43 9.70Q19.05 9.88 18.69 10.29L18.69 10.29L18.42 10.08Q19.12 9.23 19.90 8.76Q20.68 8.30 21.49 8.30L21.49 8.30L22.65 8.30Q23.66 8.30 24.53 8.20Q25.40 8.09 25.79 7.74L25.79 7.74ZM28.46 11.09Q29.15 11.09 29.76 11.38Q30.37 11.68 30.65 12.28L30.65 12.28L29.64 12.82Q29.41 12.50 29.02 12.24Q28.63 11.98 28.18 11.98L28.18 11.98Q27.47 11.98 26.94 12.36Q26.40 12.73 26.12 13.36Q25.84 13.99 25.84 14.76L25.84 14.76Q25.84 15.86 26.22 16.55Q26.60 17.25 27.41 17.25L27.41 17.25Q28.56 17.25 28.99 16.32Q29.43 15.40 29.43 14.31L29.43 14.31L29.43 13.68L30.66 13.16L30.66 16.84Q30.66 17.02 30.76 17.19Q30.86 17.36 31.05 17.36L31.05 17.36Q31.46 17.36 31.79 16.80L31.79 16.80L32.00 17.02Q31.84 17.50 31.42 17.83Q31.00 18.16 30.58 18.16L30.58 18.16Q29.97 18.16 29.69 17.71Q29.40 17.26 29.40 16.52L29.40 16.52L29.37 16.52Q29.02 17.26 28.43 17.76Q27.83 18.26 27.17 18.26L27.17 18.26Q25.98 18.26 25.38 17.44Q24.77 16.62 24.77 15.25L24.77 15.25Q24.77 14.15 25.26 13.20Q25.75 12.24 26.59 11.66Q27.44 11.09 28.46 11.09L28.46 11.09ZM39.10 14.39Q39.10 15.25 38.56 16.16Q38.01 17.07 37.21 17.66Q36.40 18.26 35.69 18.26L35.69 18.26Q34.54 18.26 33.89 17.48Q33.24 16.70 33.24 15.50L33.24 15.50L33.24 5.68L34.51 5.15L34.51 15.81Q34.51 16.48 34.92 16.98Q35.32 17.49 36.06 17.49L36.06 17.49Q36.68 17.49 37.14 17.14Q37.59 16.79 37.82 16.28Q38.05 15.76 38.05 15.30L38.05 15.30Q38.05 14.60 37.69 13.86Q37.32 13.12 36.74 12.64Q36.16 12.17 35.53 12.17L35.53 12.17L36.78 11.13Q37.38 11.33 37.92 11.88Q38.46 12.43 38.78 13.13Q39.10 13.82 39.10 14.39Z"/>
  </g>
  
  <g id="185e3286-1aa0-41c6-a431-5b0de1aeff97" stroke="none" fill="url(#ef8e489b-4579-4d59-ac2f-a7a7a3f15386)" transform="matrix(1.4650421142578125,0,0,1.4650421142578125,76.74789665977156,34.081229993104884)">
    <path d="M53.84 17.5l6.83 6.83h14.45v14.46l6.38 6.38V17.5H53.84zm-37.34 0v29.42l6.53-6.53V24.33h16.06l6.83-6.83H16.5zm58.62 44.47v14.45H60.67l-6.08 6.08H81.5V55.59l-6.38 6.38zM39.09 76.42H23.03V60.37l-6.53-6.53V82.5h28.67l-6.08-6.08zM50 4.04L29.71 24.33h9.38l10.79-10.79 10.79 10.79h9.62L50 4.04zm25.12 25.12v9.63l11.59 11.59-11.59 11.59v8.87L95.96 50 75.12 29.16zM23.03 40.39v-9.38l-6.53 6.53L4.04 50 16.5 62.46l6.53 6.53v-8.62l-6.53-6.53-3.46-3.46 9.99-9.99zm37.64 36.03L49.88 87.21 39.09 76.42h-8.63L50 95.96l19.54-19.54h-8.87zM56.105 56.945c0 3.777-12.125 3.777-12.125 0s2.286-6.062 6.062-6.062 6.063 2.285 6.063 6.062z"/>
    <path d="M63.159 64.976v3.827c0 .911 3.908 3.393 3.666 4.23h-9.571l-6.816 7.05h-.153l-7.05-7.05h-8.654c-.475-.838 3.433-3.319 3.433-4.23v-3.899-.017c.048-5.302 2.748-7.968 8.057-7.968h9.032c5.221 0 7.863 2.529 8.049 7.702v.017c.007.112.007.225.007.338zM59.76 46.19A12.737 12.737 0 0150 50.72c-7.08 0-12.81-5.74-12.81-12.82 0-5.01 2.87-9.35 7.07-11.45a12.698 12.698 0 00-3.05 8.29c0 7.07 5.74 12.81 12.81 12.81 2.07 0 4.02-.49 5.74-1.36z"/>
  </g>
</svg>
