<svg xmlns="http://www.w3.org/2000/svg" viewBox="0 0 300 300" width="300" height="300">
  <defs>
    <linearGradient id="ef8e489b-4579-4d59-ac2f-a7a7a3f15386" gradientTransform="rotate(25)" x1="0%" y1="0%" x2="100%" y2="0%">
      <stop offset="0%" stop-color="#5106FF" stop-opacity="1"/>
      <stop offset="100%" stop-color="#61CBF2" stop-opacity="1"/>
    </linearGradient>
  </defs>
  <g fill="url(#ef8e489b-4579-4d59-ac2f-a7a7a3f15386)" transform="matrix(1.4650421142578125,0,0,1.4650421142578125,76.74789665977156,34.081229993104884)">
    <path d="M53.84 17.5l6.83 6.83h14.45v14.46l6.38 6.38V17.5H53.84zm-37.34 0v29.42l6.53-6.53V24.33h16.06l6.83-6.83H16.5zm58.62 44.47v14.45H60.67l-6.08 6.08H81.5V55.59l-6.38 6.38zM39.09 76.42H23.03V60.37l-6.53-6.53V82.5h28.67l-6.08-6.08zM50 4.04L29.71 24.33h9.38l10.79-10.79 10.79 10.79h9.62L50 4.04zm25.12 25.12v9.63l11.59 11.59-11.59 11.59v8.87L95.96 50 75.12 29.16zM23.03 40.39v-9.38l-6.53 6.53L4.04 50 16.5 62.46l6.53 6.53v-8.62l-6.53-6.53-3.46-3.46 9.99-9.99zm37.64 36.03L49.88 87.21 39.09 76.42h-8.63L50 95.96l19.54-19.54h-8.87zM56.105 56.945c0 3.777-12.125 3.777-12.125 0s2.286-6.062 6.062-6.062 6.063 2.285 6.063 6.062z"/>
    <path d="M63.159 64.976v3.827c0 .911 3.908 3.393 3.666 4.23h-9.571l-6.816 7.05h-.153l-7.05-7.05h-8.654c-.475-.838 3.433-3.319 3.433-4.23v-3.899-.017c.048-5.302 2.748-7.968 8.057-7.968h9.032c5.221 0 7.863 2.529 8.049 7.702v.017c.007.112.007.225.007.338zM59.76 46.19A12.737 12.737 0 0150 50.72c-7.08 0-12.81-5.74-12.81-12.82 0-5.01 2.87-9.35 7.07-11.45a12.698 12.698 0 00-3.05 8.29c0 7.07 5.74 12.81 12.81 12.81 2.07 0 4.02-.49 5.74-1.36z"/>
  </g>
</svg>
