<svg width="300" height="300" xmlns="http://www.w3.org/2000/svg" class="iconAbove">
 <!---->
 <defs>
  <!---->
  <linearGradient y2="0%" x2="100%" y1="0%" x1="0%" id="2d0b34a8-0a45-46a7-8f09-136e8ff4f189" gradientTransform="rotate(25)">
   <stop stop-color="#5106FF" offset="0%"/>
   <stop stop-color="#61CBF2" offset="100%"/>
  </linearGradient>
 </defs>
 <defs>
  <!---->
 </defs>

 <!---->
 <g>
  <title>Layer 1</title>
  <g transform="matrix(10.6472, 0, 0, 10.683, 160.035, 64.5691)" fill="url(#2d0b34a8-0a45-46a7-8f09-136e8ff4f189)" id="2c50edd1-4133-4a4b-8ad1-959fefa20a31">
   <path id="svg_3" data-name="Symbol Islam" d="m12.75384,7.28239l-3.71,-3.7l0,-4.59a1,1 0 0 0 -1,-1l-4.59,0l-3.7,-3.71a1,1 0 0 0 -1.42,0l-3.7,3.71l-4.59,0a1,1 0 0 0 -1,1l0,4.59l-3.71,3.7a1,1 0 0 0 0,1.42l3.71,3.7l0,4.59a1,1 0 0 0 1,1l4.59,0l3.7,3.71a1,1 0 0 0 1.42,0l3.7,-3.71l4.59,0a1,1 0 0 0 1,-1l0,-4.59l3.71,-3.7a1,1 0 0 0 0,-1.42zm-5.71,-7.29l0,1.59l-1.59,-1.59l1.59,0zm0,4.41l0,7.18l-4.41,4.41l-7.18,0l-4.41,-4.41l0,-7.18l4.41,-4.41l7.18,0l4.41,4.41zm-8,-8l1.59,1.59l-3.18,0l1.59,-1.59zm-8,3.59l1.59,0l-1.59,1.59l0,-1.59zm-3.59,8l1.59,-1.59l0,3.18l-1.59,-1.59zm3.59,8l0,-1.59l1.59,1.59l-1.59,0zm8,3.59l-1.59,-1.59l3.18,0l-1.59,1.59zm8,-3.59l-1.59,0l1.59,-1.59l0,1.59zm2,-6.41l0,-3.18l1.59,1.59l-1.59,1.59zm-14,-4.59l0,1.25l-1,1a1,1 0 0 0 0,1.42l1,1l0,1.33a1,1 0 0 0 1,1l1.25,0l1,1a1,1 0 0 0 1.42,0l1,-1l1.33,0a1,1 0 0 0 1,-1l0,-1.25l1,-1a1,1 0 0 0 0,-1.42l-1,-1l0,-1.33a1,1 0 0 0 -1,-1l-1.25,0l-1,-1a1,1 0 0 0 -1.42,0l-1,1l-1.33,0a1,1 0 0 0 -1,1zm1.71,2.37a1,1 0 0 0 0.29,-0.7l0,-0.67l0.67,0a1,1 0 0 0 0.7,-0.29l0.63,-0.63l0.63,0.63a1,1 0 0 0 0.7,0.29l0.67,0l0,0.67a1,1 0 0 0 0.29,0.7l0.63,0.63l-0.63,0.63a1,1 0 0 0 -0.29,0.7l0,0.67l-0.67,0a1,1 0 0 0 -0.7,0.29l-0.63,0.63l-0.63,-0.63a1,1 0 0 0 -0.7,-0.29l-0.67,0l0,-0.67a1,1 0 0 0 -0.29,-0.7l-0.63,-0.63l0.63,-0.63z"/>
  </g>
 </g>
</svg>